<?xml version="1.0" encoding="UTF-8"?>
<svg id="Capa_1" xmlns="http://www.w3.org/2000/svg" version="1.1" viewBox="0 0 1015.15 318.49">
  <!-- Generator: Adobe Illustrator 29.5.1, SVG Export Plug-In . SVG Version: 2.1.0 Build 141)  -->
  <defs>
    <style>
      .st0 {
        fill: #fff;
      }

      .st1 {
        fill: #e9d01a;
      }
    </style>
  </defs>
  <path class="st0" d="M629.71,184.26c-1.71,5.1-5.47,10.5-3.98,15.97.79.1,1.64.17,2.43.02,2.24-.42,18.32-15.4,20.56-18.49-7.75,2.68-12.06,10.46-19,14.49,7.86-19.99-2.96-16.28-12-4,4.66-18.27-.7-8.15-7.56-7.05-2.66.43-5.72-.15-8.44.05,3.03-6.24,3.63-19-6.37-13.86-4.33,2.22-3.54,5.48-3.85,9.67l-21.3,17.19c-2.89-3.63,7.13-17.06,1-17.03-2.97.01-13.56,16.05-21.72,18.39-7.74,2.22-3.99-9.95-2.27-13.36,2.42-4.81,5.02-3.49,5.5-4.01,1.17-1.24-1.36-3.2-3.43-3.01-3.25.3-20.55,20.24-25.07,24.02-1.12.94-1.62,2.43-3.5,1.99-.81-.77,8.3-17.76,8.06-20.49-.75-8.34-9.06,8.43-12.05,8.5.54-3.8,3.39-12.74,7.98-9.99v-3c-7.05-1.43-11.45,6.22-16.51,9.97-2.99,2.22-17.71,12.8-20.52,11.54-3.02-2.23-1.95-5.45-1.51-8.57.7-4.92,12.95-44.38,14.97-46.02,3.02-2.45,25.3-4.33,29.81-3.67,5.36.78,8.19,2.11,9.33,7.7.46,2.24-2.11,4.67,1.42,4.04.7-21.53-26.75-12.51-39.99-11l4.01-12.48c.01-.83-1.98-.71-2.52-.54-1.63.52-4.28,13.73-7.21,14.81-9.46,1.33-19.4,6.37-28.79,7.2-16.61,1.47-8.2-5.38-9.5-6.99-3.18,1.47-4.21,4.41-1.54,7.05,6.22,6.14,31.22-3.8,39.54-5.05.2,1.4-.15,2.69-.45,4.04-1.01,4.5-8.08,25.45-10.12,28.88-2.58,4.33-13.29,10.7-16.93,15.07-.81-3.85,6.51-14.18-1-14.09-4.33.05-8.24,7.57-11.48,10.1-.1-1.94,4.39-12.08-.49-10.99-3.51.78-15.9,20.3-24.05,18.81-3.44-.95.04-14.22.65-14.71.64-.52,3.32.33,4.9-.59,3.05-1.78,1.49-5.73-2.42-5.54-4.18.2-17.5,16-22.09,19.01-1.28-4.27,4.07-8.57,4.49-12.58,1.19-11.29-13.38,4.62-15.49,7.58-1.11-2.6,6.69-14.32-1.2-11.28-4.4,1.7-8.36,10.44-12.29,13.28,1.38-4.55,7.58-19.35-2.37-11.82-6,4.54-12.84,14.21-20.16,16.8-2.49.88-.86-1.03-.76-1.75.7-5.01,2.4-9.76,3.29-14.72,0-.88-2.06-.67-2.49-.49-3.04,1.3-6.69,16.67-13.52,14.97-.17-5.57-.95-15.77,6.99-15l2,4c-1.71-15.47-16.23,2.64-21.52,6.98-.91.74-5.8,4.76-6.47,4.02-.62-2.88,5.3-15.72,3.99-16.99-1.34-1.3-14.29,7.39-18.51,7.99-3.06.44.11-2.5-.94-4.95-1.98-4.62-8.34-3.14-11.05-.05-.78-6.81-5.45-.67-9.43.56-3.09.95-6.87.97-10.06.44,3.68-4,4.96-15.45-2.4-15-7.5.46-5.99,6.42-8.14,10.97-1.68,3.56-16.46,18.59-20.13,20.87-.88.55-4.76,2.79-5.32,2.17-1.89-5.23,6.06-15.22,6.01-18.55-.04-2.6-3.94-3-6.01-3.46,3.74-3.19,8.63-15.73.57-13.97-8.86,1.94-3.74,13.06-5.03,15.94-1.57,3.52-15.9,15.63-20.24,15.89-5.23.32-1.02-20.7,5.7-17.86.11-3.8-3.83-3.58-6.37-1.86l-21.13,17.86c-2.29-4.63,8.24-18.39-.52-16.52-11.61,15.38-21.94,33.11-34,48-1.71,2.12-14.23,17.46-16.98,14.51,3.54-27.84,18.13-52.93,29.17-78.32,2.72-6.25,8.31-17.47,9.42-23.65.56-3.12.06-7.31-3.93-6.78-5.87.79-24.13,25.92-28.07,31.84-14.98,22.52-25.27,47.97-41.1,69.9-2.65.22-.94-.47-.77-1.76,3.45-25.06,27.12-58.4,36.46-82.55,1.76-4.56,5.33-13.51-3.13-10.12-2.03.82-9.59,9.23-11.56,11.42-11.3,12.56-19.81,27.24-29.48,41.01,5.25-14.49,23.06-47.79,8.93-60.44-10.41-9.31-29.77.28-38.95,7.92-10.51,8.75-22.41,27.61-17.49,41.52,2.4,6.78,12.29,11.67,17.5,5-6.61,1.28-11.91,2.9-14.9-4.61-8.9-22.4,24.78-55.77,47.17-51.17,13.98,2.87,6.05,26.37,3,35.54-7.7,23.17-21.82,44.84-29.73,67.27-1.62,4.6-1.3,6.8,2.76,2.67,16.09-27.46,30.53-58.21,51.73-82.18,1.52-1.71,10.42-11.06,11.49-11.52,1.22-.53,1.88.22,1.47,1.47-7.9,15.99-16.88,31.56-24.16,47.84-4.17,9.33-14.74,33.01-14.64,42.22.01,1.2.67,2.27.85,3.43,4.16,3.02,13.06-12.88,14.76-15.68,17.85-29.36,30.87-63.59,57.71-86.29,1.27,1.36.02,4.02-.46,5.54-7.83,24.78-23.82,49.01-31.76,75.24-3.89,12.86-12.2,42.2,10.22,19.22,12.69-13,22.1-32.06,33.99-46.01,1.2,2.61-.68,6.92,2.51,8.55,4.83,2.46,16.29-13.28,17.99-11.54-4.64,18.61,10.5,14.51,20.04,5.53,3.2-3.01,8.51-13.56,13-9.98-15.03,29.86,3.74,24.29,17.47,6.44,1,4.66-1.01,9.28,5.95,7.99,5.02-.93,8.12-10.93,9.71-11.84.82-.47,12.28,1.06,14.82-2.15l-19.99,58.99,3.07-.61,19.18-52.63c2.85-3.75,6.41-8.39,11.74-7.75.16,9.06-3.44,7.21-8.72,9.78-6.76,3.29-4.18,11.13,2.67,6.66,2.8-1.83,5.11-6.39,6.76-7.49,3.51-2.35,11.2-2.41,14.79-5.95.66,4.27-3.2,9.26-.58,13.32,3.7,5.75,12.89-5.91,15.59-8.32,2.53-1.06,1,5.06,1.97,7.01,2.65,5.32,10.94,1.42,13.51-2.01.24.3-1.2,6.64-1.98,7.51-1.37,1.55-15.19,7.45-18.92,10.08-9.14,6.42-14.05,13.49-11.39,25.2,3.37,14.86,17.57,10.94,23.48-.11,4.3-8.05,8.28-30.93,11.78-35.22,1.54-1.89,12.2-7.84,15.51-10.49,2.19-1.74,3.93-4.12,6.03-5.97,1.35,2.69-5.9,12.99-1.99,13.99,3.79.97,10.99-11.61,13.99-13.99,1.12,1.95-6.1,14.33-.02,12.99,2.58-.57,10.59-14.48,15.51-14.99,1.18,1.39-18.22,30.76,12,5-1.62,22.64,20.2,8.49,26.52-2,1.51,2.75-4.35,11.04,1.01,11.03,2.61,0,10.42-13.19,14-15.03,2.55-.2,1.12.36.73,1.73-.94,3.33-7.75,15.11-.96,14.11,2.83-.42,11.71-10.06,14.71-12.36,1-.77,1.27-1.94,3-1.49.89.99-4.93,17.01,3.48,17.57,7.13.48,19.64-10.6,25.52-14.57-.68,6.78,1.03,8.89,7,5,.5.62-5.52,14.08,1.51,14.03,2.55-.02,14.81-14.72,18-17.03.76,21.03,18.52,7.62,26.49-1,.27,2.6-.52,5.83.21,8.29,2.72,9.09,15.81-8.24,18.31-9.29,2.93-1.22.4,4.47.43,5.53.08,3.26,2.27,4.97,5.5,4.49,5.07-.75,8.77-11.32,9.69-11.89,1.31-.81,11.8,1.88,14.37-2.13,1.66,2.69-5.87,14.03,0,14.03,3.22,0,13.06-17.43,15.5-15.02ZM247.72,180.25c-1.45-2.39,3.17-12.77,5.99-9.99.89.88-2.69,10.63-5.99,9.99ZM273.72,197.25c-.59-2.5,3.35-13.99,5.49-13.98,8.64,2.89-4.69,15.02-5.49,13.98ZM284.65,184.2c-3.38,2.29-8.04-6.38-2.92-10.42,8.93-7.04,4.77,9.16,2.92,10.42ZM304.72,199.25c-.64-1.83,3.92-5.94,4.99-4.99.4.36-4.64,5.4-4.99,4.99ZM346.9,239.95c-12.36,19.72-24.13-7.59-10.69-20.69,2.04-1.99,20.35-13.21,21.49-12,1.18,1.25-8.86,29.6-10.8,32.69ZM588.72,197.25c-.36-3.76,1.02-10.12,3.52-12.98,1.14-1.3,4.21.95,4.32,1.14,1.43,2.38-5.28,10.73-7.84,11.84ZM594.97,182.99c-5.57-5.8,6.86-15.99,6.82-7.25-.01,3.19-3.02,11.21-6.82,7.25Z"/>
  <path class="st0" d="M876.21,89.25c-48.59-49.6-185.55,2.53-245.29,13.71-19.29,3.61-38.6,5.34-58.2,6.28l17.99-4.49c23.82-3.03,55.49-39.44,34.66-61.15-13.24-13.8-43.07-8.86-55.17,4.64-8.7,9.7-3.82,23.01,9.51,22.01-1.78-7.92-9.14-7.28-2.83-16.33,16.51-23.68,62.96-14.26,44.03,18.04-9.09,15.51-37.03,28.77-54.66,29.34-10.82.35-7-1.45-7.48-7.5-1.04-12.98-15.02-20.61-27.05-16.54-1.89-7.39,12.6-11.07,13.8-13.16,2.15-3.74-1.62-5.3-4.84-4.38-4.96,1.42-9.86,6.54-11.76,11.26-1.62,4.03-5.65,18.84-4.98,22.55,4.5,24.89,54.22,26.04,73.31,24.79,79.94-5.25,189.77-66.02,267.14-31.23,3.79,1.7,7.74,5.1,11.32,6.7,3.75,1.67,2.81-2.16.5-4.51ZM532.84,83.38c1.85-2.98,16.41-1.95,17.33,6.73,1.75,16.46-21.15-.58-17.33-6.73Z"/>
  <path class="st1" d="M376.71,92.24c-11.36-5.34-24.68-17.71-36.99-7.46-.31,1.26,1.2,2.3,2.04,2.93,3.39,2.54,34.03,11.25,39.7,12.3,1.42.26,2.82.34,4.25.24l.48-2.97c8.18,4.12,17.27,6.45,26.52,5.98.2-1.52-.24-2.72-1-4-11.59-4.92-16.81-11.61-26.69-17.81-16.62-10.45-21.97-1.64-8.31,10.8Z"/>
  <path class="st0" d="M150.69,88.73c82.16-40.54,202.06,32.09,289.52,29.96,16.59-.4,47.98-5.02,53.54-23.89,2.24-7.59-.47-7.19-1.99-13.1-1.61-6.29-.77-9.28-5.08-14.92-1.97-2.57-11.19-10.03-13.93-7.49-.21.2-.85,3.56-.16,4.5,2.61,3.54,15.24,5.44,14.11,13.46-11.35-3.98-25.82,3.24-26.97,15.62-.6,6.49,3.67,8.83-7.51,8.37-17.82-.74-44.09-12.79-53.93-28.08-16.47-25.59,9.11-39.62,31.79-28.79,5.52,2.64,15.19,10.31,13.39,17.12-.81,3.08-5.38,5.09-4.76,8.75,18.34-1.04,17.38-16.95,3.9-26.4-34.22-24-75.92,5.45-46.42,41.42,3.41,4.16,14.02,11.49,15.51,13.99,4.14,1.76,8.68,2.79,12.78,4.72l21.21,5.27c-17.85-1.08-35.54-2.22-53.2-5.28-66.68-11.57-175.48-57.79-237.81-23.23-2.34,1.3-14.63,9.42-14.98,11.03-1.24,5.81,9.61-2.36,10.97-3.04ZM467.92,89.99c.85-8.71,15.91-9.43,17.66-6.61,3.93,6.32-19.24,22.87-17.66,6.61ZM480.04,99.08l6.66-5.83c-1.86,7.82-11.48,12.57-18.99,12.99l12.32-7.16Z"/>
  <path class="st1" d="M606.73,99.77c-1.17,1.25-1.22,1.79-1.01,3.48,9.12.4,18.35-1.94,26.51-5.98l.51,2.97c1.37,1.32,32.54-8.24,36.74-9.71,1.94-.68,9.96-2.73,9.24-5.75-11.74-9.49-25.1,1.34-36,6.48-.65-.58,12.74-12.4,4.5-13.98-9.91-1.9-18.26,8.21-25.57,13.43-2.87,2.05-13.62,7.69-14.92,9.08Z"/>
  <path class="st0" d="M823.22,204.26l1.49,4.99c1.12.42,3.99-.43,3.99-1.5v-48.5c-.72.13-4-.2-4,0v20c-15.03-14.64-36.53-3.82-32.95,17.45,2.2,13.05,23.21,18.32,31.46,7.56ZM800.06,180.6c13.49-12.25,33.82,7.82,19.68,21.18-14.12,13.35-33.5-8.63-19.68-21.18Z"/>
  <path class="st0" d="M706.71,159.25v23h-32.5c-.11,0-1.5-1.39-1.5-1.5v-21.5c-2.4-.27-3.55.02-4,2.5,1.22,13.92-1.62,30.48-.05,44.05.34,2.95.82,3.83,4.05,3.45v-21.5c0-.11,1.39-1.5,1.5-1.5h32.5v21.5c0,1.72,4,1.72,4,0v-47c0-1.06-2.84-1.9-4-1.5Z"/>
  <path class="st0" d="M924.23,173.26l-2.03,5c-7.33-5.27-13.94-8.23-22.54-3.56-21.22,11.52-6.63,44.16,17.1,33.1,2.18-1.01,3.24-3.04,5.44-3.56.84-.02-.15,6.69,4.51,5.01v-34.5c0-.31-1.64-1.87-2.48-1.49ZM907.36,205.9c-16.08-.64-18.48-25.52-2.91-28.4,23.25-4.31,23.66,29.23,2.91,28.4Z"/>
  <path class="st0" d="M731.47,172.47c-29.25,4.26-13.67,50.62,12.17,35.21,17.58-10.49,7.4-38.06-12.17-35.21ZM734.96,206.01c-17.12.93-20.87-25.48-4.52-28.51,22.46-4.17,23.3,27.5,4.52,28.51Z"/>
  <path class="st0" d="M765.06,179.6c5.66-5.39,17.65-.99,17.65,6.15v23.5c0,.2,3.86.14,4,0,.95-.92,0-22.87,0-26.5,0-.4-3.76-5.86-4.49-6.51-3.35-2.99-9.16-4.45-13.56-3.55-4.96,1.02-6.31,5.97-8.46.56-.8-.39-2.49,1.17-2.49,1.5v34.5c1.07-.02,2.07.28,3.06-.44,3.36-2.46-2.61-22.64,4.29-29.21Z"/>
  <path class="st0" d="M858.7,192.74c-.85,8.41-6.88,16.79-15.91,11.93-10.45-5.63-.95-30.04-7.59-31.41-.85-.38-2.49,1.19-2.49,1.5v23c0,1.12,3.34,7.35,4.5,8.5,4.43,4.41,12.63,5.49,18.01,2.01,2.24-1.45,7.49-8.01,7.49-10.51v-23.5c-7.43-2.96-3.45,12.95-4.01,18.49Z"/>
  <path class="st0" d="M948.41,191.05c-4.6-2.33-16.22-1.78-12.19-10.77,3.69-8.23,14.13,1.14,14.97.97,2.09-.42,2.17-4.3-.08-5.9-10.02-7.14-24.32.8-19.14,12.13,2.82,6.17,26.51,8.17,15.25,16.79-6.14,4.69-9.84-1.55-13.18-1.87-1.13-.11-3.31,1.94-3.32,2.36-.04,4.14,15.09,7.76,20.64,2.15,4.69-4.74,3.06-12.8-2.95-15.86Z"/>
  <path class="st0" d="M872.21,178.25l-1.46-4.56c-.63-.61-3.92.39-4.03.56-.93,1.39,0,29.03,0,33.5,0,1.88,5,1.88,5,0v-21c0-2.49,6.46-7.89,8.98-9.02,1.86-.83,7.26.16,6.01-3.97-1.22-4.05-12.94,2.03-14.5,4.48Z"/>
  <path class="st0" d="M193.27,255.2c-2.77-2.78-14.55-2.71-14.55-.44v21.5c4.67-.59,14.02,1.83,16.89-2.61,3.23-4.98-1.2-6.49-1.62-9.03-.44-2.69,2.62-6.07-.72-9.42ZM181.8,256.35c15.3-3.1,14.82,9.58-.1,7.91l.1-7.91ZM193.47,273.01c-2.19,2.11-8.74.97-11.76,1.25v-8.01c4.31-1.61,17.72,1.01,11.76,6.76Z"/>
  <path class="st0" d="M634.77,261.69c-5.63-4.8-8.44.42-14.05-1.45-.85.59-.7,18.42-.17,20.66.42,1.81-.6,2.8,2.16,2.34v-7.99c2.54,0,3.58,2.05,6.4,1.96,7.88-.27,11.74-10.35,5.67-15.52ZM633.46,272.99c-4.71,4.45-14.34-1.34-9.81-8.31,5.16-7.93,16.88,1.64,9.81,8.31Z"/>
  <path class="st0" d="M247.21,272.26c-1.38-1.57-4.03-11.7-5-12.02-2.65-.9-1.97.13-2.59,1.45-1.17,2.46-1.77,5.85-2.81,8.16-.4.89-.41,3.05-2.08,1.4-.98-.96-2.6-10.62-3.04-10.99-.12-.1-2.93-.41-2.96.48,5.22,12.59,5.8,24.84,12.49,3.5,1.24,0,3.52,15.28,7.49,12.01.65-.53,3.9-13.93,5.01-16-4.45-.7-5.42,11.98-6.5,12Z"/>
  <path class="st0" d="M799.44,260.49c-7.26,3.63-5.33,14.33,2.26,16.32,4.5,1.19,6.43-2.9,11-.56v-16c-5.3,1.85-7.5-2.64-13.27.24ZM800.15,273.31c-7.5-4.54,1.73-16.73,8.3-9.8,4.33,4.56-.44,14.55-8.3,9.8Z"/>
  <path class="st0" d="M832.97,260.49c-5.28-2.63-7.3,1.66-12.26-.23v23c4.15.93.96-7.54,2.01-9,10.12,9.8,21.94-7.94,10.25-13.77ZM827.27,274.26c-7.02-1.19-5.78-12.55,1.94-12.56,8.66-.02,8.81,14.38-1.94,12.56Z"/>
  <path class="st0" d="M459.17,274.29c2.78,2.85,9.95,3.53,12.54.95.62-.62.55-2.18-1.41-1.92-4.62.61-9.98,2.85-10.59-4.06h15c-2.06-19.45-26.14-5.81-15.54,5.04ZM471.71,267.25h-11.49c-1.1-7.11,10.34-7.49,11.49,0Z"/>
  <path class="st0" d="M411.29,263.33c-5.64,9.19,6.33,19.14,13.41,10.42-4.78-.28-11.5,2.82-11.99-4.49,2.49-.41,14.74,1.15,14.94-1.49-1.26-8.09-11.85-11.8-16.37-4.44ZM413.22,267.26c-1.3-7.59,10.46-7.24,11.49-.01h-11.49Z"/>
  <path class="st0" d="M388.23,255.32c1.87-.33,2.92.82,2.48-2.06h-14v23h14c.13-2.34.34-1.77-1.48-2-1.91-.24-10.15.38-10.52,0v-8.01c2.49-.07,5.02.11,7.52,0,1.31-.06,4.2.81,3.49-1.49-.22-.73-9.25-1.36-11-.51-1.36-11.51,1.88-7.6,9.51-8.94Z"/>
  <path class="st0" d="M764.63,256.94c2.72-4.2,13.72,4.66,9.92-1.54-1.46-2.38-10.44-3.12-12.34.85-5.3,11.08,11.1,8.73,11.14,14.5.06,7.25-11.13,1.04-11.64,1.51,1.76,7.47,13.36,5.57,13.97-1.58.74-8.78-16.8-4.87-11.05-13.75Z"/>
  <path class="st0" d="M217.48,259.44c-11.86,1.44-8.5,18.36,1.66,17.8,11.18-.61,10.64-19.3-1.66-17.8ZM212.67,267.78c.16-5.98,7.16-8.09,10.79-4.27,7.81,8.23-11.15,17.61-10.79,4.27Z"/>
  <path class="st0" d="M405.2,262.21c-.59,1.09-4.04,11.11-5.48,10.05-.15-1.28-4.78-14.38-7.01-11.99-.71.76,5.43,12.22,5.8,14.76.59,4.12-1.66,4.96-1.29,8.25,1.97.04,2.65-2.22,3.37-3.63,1.24-2.45,7.95-18.31,7.12-19.37-1.46-1.86-2.18,1.34-2.5,1.95Z"/>
  <path class="st0" d="M450.45,260c-4.4-1.9-5.72,1.71-9.74.25v16c3.63.68,1.64-6.69,2.07-9.43,1.05-6.7,8.75-6.97,9.87,0,.48,2.97-.19,6.39.07,9.43,2.51,3.29,2.15-7.5,2.04-8.54-.32-3.26-.92-6.24-4.31-7.71Z"/>
  <path class="st0" d="M642.75,262.29c1.33-1.89,6,1.35,7.96.95-2.89-6.73-14.33-2.89-10.07,3.58,1.8,2.73,7.56,2.48,7.83,4.91.5,4.56-6.43,1.56-8.76,1.53,3.66,8.5,15.22.54,10.03-4.55-1.32-1.3-10.27-1.75-6.99-6.43Z"/>
  <path class="st0" d="M257.72,263.76c.93-2.98,5.96-.4,7.99-.52-2.2-7.24-13.72-2.93-9.51,4.03.56.92,18.13,8.32-.48,5.98,1.25,6.35,10.05,4.49,10.1-1.5.05-6.07-9.68-2.94-8.09-7.99Z"/>
  <path class="st0" d="M478.72,263.77c.68-3.22,7.68-.23,7.99-.52-1.17-5.87-10.11-4.2-9.98,1.41.16,6.82,9.84,2.38,7.98,9.59l-7.49-1.01c-.82,5.22,9.87,5.02,10.08-.47.26-6.62-9.4-5.16-8.59-9Z"/>
  <path class="st0" d="M792.71,263.24c-3.62-7.14-14.07-3.39-14.98,3.6-1.14,8.78,9.87,14.23,14.98,6.42-5.25,1.59-13.47,2.15-12.99-5.44.45-7,8.11-6.72,12.99-4.58Z"/>
  <path class="st0" d="M599.71,272.75v-19.5h-2v23h15v-1.99c-2.26-.26-13,.95-13-1.51Z"/>
  <path class="st0" d="M815.72,253.26c-.84.67-1.36,19.68-.84,21.33.42,1.33,1.45,1.93,2.82,1.67v-21.5c0-.19-1.62-1.79-1.99-1.5Z"/>
  <path class="st0" d="M198.71,260.25v16c3.48.83,1.67-4.89,2.1-7.4.87-5.16,2.86-6.47,7.9-7.61-1.99-4.21-6.42,1.49-10-.99Z"/>
  <path class="st0" d="M429.71,254.75c-1.34,5.23.99,15.62,0,21.5,2.3.12,1.79.37,2-1.48.26-2.21.71-20.73-.02-21.52-.63-.03-1.9,1.16-1.99,1.5Z"/>
  <rect class="st0" x="435.71" y="260.25" width="2" height="16"/>
  <rect class="st0" x="615.71" y="260.25" width="2" height="16"/>
  <path class="st0" d="M603.71,164.26l-4.99,4.99c2.44-.39,5.88-1.93,4.99-4.99Z"/>
  <path class="st0" d="M575.71,174.77c-.68-3.09-5.42-.33-3.99,1.48.67.84,4.56,1.14,3.99-1.48Z"/>
  <path class="st0" d="M205.72,176.25h3.99c0-3.93-3.97-3.98-3.99,0Z"/>
  <path class="st0" d="M335.72,173.26c-.62.67.47,3.96,1.49,3.97,2.98.03.28-5.88-1.49-3.97Z"/>
  <rect class="st0" x="435.72" y="252.26" width="1.99" height="3.99"/>
  <rect class="st0" x="615.72" y="252.26" width="1.99" height="3.99"/>
</svg>